HIERARCHY
ROOT Hips
{
	OFFSET 0.000000 0.000000 0.000000
	CHANNELS 6 Xposition Yposition Zposition Xrotation Yrotation Zrotation
	JOINT LeftUpLeg
	{
		OFFSET 3.102150 0.000000 0.000000
		CHANNELS 6 Xposition Yposition Zposition Xrotation Yrotation Zrotation
		JOINT LeftLeg
		{
			OFFSET 0.000000 -0.000001 -16.833309
			CHANNELS 6 Xposition Yposition Zposition Xrotation Yrotation Zrotation
			JOINT LeftFoot
			{
				OFFSET 0.000000 -0.000001 -15.538792
				CHANNELS 6 Xposition Yposition Zposition Xrotation Yrotation Zrotation
				JOINT LeftToeBase
				{
					OFFSET 0.000000 -5.872970 -1.573662
					CHANNELS 6 Xposition Yposition Zposition Xrotation Yrotation Zrotation
					End Site
					{
						OFFSET 0.000000 -2.952750 0.000000
					}
				}
			}
		}
	}
	JOINT RightUpLeg
	{
		OFFSET -3.102150 0.000000 0.000000
		CHANNELS 6 Xposition Yposition Zposition Xrotation Yrotation Zrotation
		JOINT RightLeg
		{
			OFFSET 0.000000 -0.000001 -16.833309
			CHANNELS 6 Xposition Yposition Zposition Xrotation Yrotation Zrotation
			JOINT RightFoot
			{
				OFFSET 0.000000 -0.000001 -15.538792
				CHANNELS 6 Xposition Yposition Zposition Xrotation Yrotation Zrotation
				JOINT RightToeBase
				{
					OFFSET 0.000000 -5.872970 -1.573662
					CHANNELS 6 Xposition Yposition Zposition Xrotation Yrotation Zrotation
					End Site
					{
						OFFSET 0.000000 -2.952750 0.000000
					}
				}
			}
		}
	}
	JOINT Spine
	{
		OFFSET 0.000000 0.000000 0.039370
		CHANNELS 6 Xposition Yposition Zposition Xrotation Yrotation Zrotation
		JOINT Spine1
		{
			OFFSET 0.000000 0.000001 8.310460
			CHANNELS 6 Xposition Yposition Zposition Xrotation Yrotation Zrotation
			JOINT Neck
			{
				OFFSET 0.000000 0.000000 6.254630
				CHANNELS 6 Xposition Yposition Zposition Xrotation Yrotation Zrotation
				JOINT Head
				{
					OFFSET 0.000000 0.000001 8.608170
					CHANNELS 6 Xposition Yposition Zposition Xrotation Yrotation Zrotation
					End Site
					{
						OFFSET 0.000000 0.000000 4.527550
					}
				}
			}
			JOINT LeftShoulder
			{
				OFFSET 0.000000 0.000000 6.254630
				CHANNELS 6 Xposition Yposition Zposition Xrotation Yrotation Zrotation
				JOINT LeftArm
				{
					OFFSET 7.448570 -0.000000 -0.000030
					CHANNELS 6 Xposition Yposition Zposition Xrotation Yrotation Zrotation
					JOINT LeftForeArm
					{
						OFFSET 10.735449 -0.000000 -0.000040
						CHANNELS 6 Xposition Yposition Zposition Xrotation Yrotation Zrotation
						JOINT LeftHand
						{
							OFFSET 10.158400 -0.000000 -0.000040
							CHANNELS 6 Xposition Yposition Zposition Xrotation Yrotation Zrotation
							JOINT LeftHandThumb
							{
								OFFSET 0.000000 0.000000 0.000000
								CHANNELS 6 Xposition Yposition Zposition Xrotation Yrotation Zrotation
								End Site
								{
									OFFSET 0.000000 -3.937000 0.000000
								}
							}
							JOINT L_Wrist_End
							{
								OFFSET 3.937000 -0.000000 -0.000010
								CHANNELS 6 Xposition Yposition Zposition Xrotation Yrotation Zrotation
								End Site
								{
									OFFSET 0.000000 0.000000 0.100000
								}
							}
						}
					}
				}
			}
			JOINT RightShoulder
			{
				OFFSET 0.000000 0.000000 6.254630
				CHANNELS 6 Xposition Yposition Zposition Xrotation Yrotation Zrotation
				JOINT RightArm
				{
					OFFSET -7.448570 -0.000000 -0.000030
					CHANNELS 6 Xposition Yposition Zposition Xrotation Yrotation Zrotation
					JOINT RightForeArm
					{
						OFFSET -10.735449 -0.000000 -0.000040
						CHANNELS 6 Xposition Yposition Zposition Xrotation Yrotation Zrotation
						JOINT RightHand
						{
							OFFSET -10.158400 -0.000000 -0.000040
							CHANNELS 6 Xposition Yposition Zposition Xrotation Yrotation Zrotation
							JOINT RightHandThumb
							{
								OFFSET 0.000000 0.000000 0.000000
								CHANNELS 6 Xposition Yposition Zposition Xrotation Yrotation Zrotation
								End Site
								{
									OFFSET 0.000000 -3.937000 0.000000
								}
							}
							JOINT R_Wrist_End
							{
								OFFSET -5.393688 -0.000000 -0.000020
								CHANNELS 6 Xposition Yposition Zposition Xrotation Yrotation Zrotation
								End Site
								{
									OFFSET 0.000000 0.000000 0.100000
								}
							}
						}
					}
				}
			}
		}
	}
}
MOTION
Frames: 8
Frame Time: 0.041667
9.776300 7.064602 33.520500 1.375162 -0.125098 -83.442188 3.102150 -0.000000 -0.000003 4.625833 -10.725538 9.365146 0.000000 -0.000001 -16.833305 3.825200 -0.000000 0.000000 0.000002 -0.000000 -15.538786 -19.204448 32.277189 19.308692 -0.000001 -5.872971 -1.573662 -2.399797 -0.000000 0.000002 -3.102150 -0.000001 0.000000 8.409508 0.938057 -4.972268 -0.000001 -0.000000 -16.833307 3.518300 0.000000 -0.000000 -0.000001 -0.000000 -15.538791 -21.216009 -4.599817 -4.824374 -0.000001 -5.872970 -1.573661 4.550101 -0.000000 -0.000000 -0.000000 -0.000000 0.039368 -7.411590 -0.706753 0.657450 -0.000000 0.000002 8.310461 1.792275 -1.087014 -0.718128 0.000000 0.000000 6.254625 20.645056 -2.196942 11.076046 0.000001 0.000003 8.608172 -16.185772 4.486686 -9.331052 0.000001 0.000001 6.254625 17.122832 -23.683073 -3.021142 7.448570 0.000001 -0.000027 12.270974 98.647445 -15.944639 10.735455 0.000001 -0.000041 -0.000100 -0.000001 -33.257400 10.158390 0.000002 -0.000039 -1.218320 4.641337 3.361536 0.000002 -0.000000 0.000000 0.000000 0.000001 0.000001 3.937001 -0.000001 -0.000009 0.000000 0.000000 0.000000 0.000001 0.000001 6.254624 19.395070 15.814174 -4.843538 -7.448572 -0.000001 -0.000031 47.423349 -98.833411 47.949625 -10.735451 -0.000001 -0.000040 -0.000100 0.000001 21.581798 -10.158405 -0.000002 -0.000043 -26.852214 -29.595903 10.850224 -0.000006 -0.000000 0.000000 0.000001 -0.000000 -0.000000 -5.393689 0.000000 -0.000020 0.000000 -0.000003 0.000001 
9.735400 7.130102 33.515598 1.305626 -0.032627 -83.576981 3.102150 -0.000002 0.000002 4.016254 -10.886803 9.547807 -0.000001 -0.000001 -16.833309 5.474901 0.000001 0.000000 0.000002 -0.000000 -15.538790 -19.790627 32.302157 19.225398 -0.000001 -5.872971 -1.573660 -2.394597 0.000001 0.000001 -3.102150 -0.000003 -0.000002 8.326105 0.927591 -5.046363 0.000001 -0.000000 -16.833309 3.990100 -0.000000 0.000000 -0.000002 -0.000001 -15.538788 -21.510786 -4.603396 -4.567965 0.000000 -5.872971 -1.573664 4.542100 -0.000000 -0.000000 0.000000 -0.000003 0.039369 -7.314433 -0.716052 0.661452 -0.000000 0.000000 8.310459 1.947041 -1.067816 -0.716824 0.000000 -0.000001 6.254632 20.583665 -1.985157 11.332693 -0.000001 0.000003 8.608171 -16.183336 4.694626 -9.309509 0.000000 -0.000001 6.254632 16.903774 -23.442013 -3.288703 7.448574 0.000001 -0.000029 11.067872 99.116816 -14.804693 10.735450 -0.000002 -0.000039 -0.000101 -0.000002 -30.831897 10.158399 -0.000001 -0.000040 -3.072870 4.643239 3.209346 -0.000002 -0.000002 -0.000000 0.000001 0.000000 -0.000000 3.937001 -0.000002 -0.000010 0.000001 0.000000 -0.000001 0.000001 -0.000001 6.254631 19.039058 15.735617 -4.593603 -7.448573 0.000002 -0.000030 42.243928 -99.223292 42.736924 -10.735445 0.000002 -0.000040 -0.000100 0.000001 20.549498 -10.158400 -0.000001 -0.000040 -27.173780 -29.600715 10.907234 -0.000004 0.000001 0.000002 0.000002 -0.000000 0.000001 -5.393689 0.000001 -0.000017 0.000000 -0.000001 0.000001 
9.717400 7.220002 33.506599 1.465990 -0.287479 -83.511835 3.102151 -0.000001 -0.000001 2.748866 -11.323740 9.306533 0.000001 -0.000002 -16.833313 7.521300 0.000000 -0.000001 0.000003 -0.000001 -15.538791 -20.643202 32.351181 19.365685 -0.000001 -5.872970 -1.573661 -2.268697 0.000001 0.000003 -3.102150 -0.000001 0.000000 7.788057 0.650123 -5.190635 0.000000 -0.000000 -16.833311 4.601099 0.000000 -0.000000 0.000001 -0.000000 -15.538793 -21.847523 -4.435483 -4.426682 0.000001 -5.872971 -1.573661 4.582800 -0.000000 -0.000000 0.000000 -0.000001 0.039367 -7.313184 -0.665468 0.561038 -0.000000 -0.000000 8.310460 1.711719 -1.137485 -0.815060 -0.000000 0.000000 6.254631 20.615688 -2.159568 11.179343 -0.000000 -0.000001 8.608161 -16.121868 5.142491 -8.791866 -0.000001 0.000000 6.254631 17.034102 -23.490463 -3.312267 7.448571 0.000001 -0.000030 9.746069 99.815449 -13.819751 10.735458 -0.000000 -0.000042 -0.000100 -0.000002 -28.309801 10.158401 0.000000 -0.000042 -4.549504 4.613473 3.167173 -0.000006 -0.000001 0.000000 0.000000 -0.000000 0.000001 3.936996 -0.000001 -0.000011 0.000000 0.000000 -0.000002 0.000000 0.000000 6.254630 19.450804 15.446714 -4.602903 -7.448571 -0.000001 -0.000032 34.304103 -99.040769 35.565154 -10.735449 0.000001 -0.000041 -0.000100 0.000002 19.421001 -10.158400 0.000000 -0.000042 -28.025574 -29.607668 11.033127 0.000004 -0.000000 -0.000001 0.000000 -0.000000 0.000000 -5.393684 0.000000 -0.000021 -0.000001 0.000001 0.000001 
9.680900 7.284503 33.500301 1.383336 -0.219653 -83.673492 3.102151 -0.000002 0.000001 1.947728 -11.471228 9.306505 -0.000000 -0.000002 -16.833315 9.490600 0.000000 0.000001 0.000001 -0.000001 -15.538790 -21.288216 32.251091 19.542597 0.000001 -5.872970 -1.573660 -2.299099 -0.000000 0.000001 -3.102150 -0.000001 0.000003 7.928214 0.619393 -4.248747 0.000000 -0.000000 -16.833307 4.547602 0.000000 0.000000 0.000000 -0.000002 -15.538790 -21.990593 -4.227191 -5.110438 -0.000001 -5.872971 -1.573662 4.390601 -0.000000 -0.000001 0.000000 -0.000001 0.039373 -7.213896 -0.674263 0.603542 -0.000000 0.000001 8.310456 1.865038 -1.105199 -0.775644 0.000000 0.000001 6.254631 20.526370 -1.947667 11.423590 0.000001 0.000003 8.608169 -16.086347 5.348404 -8.783643 0.000000 0.000001 6.254630 16.873714 -23.232969 -3.550759 7.448574 -0.000000 -0.000031 9.149351 100.156268 -13.305372 10.735439 0.000002 -0.000038 -0.000100 -0.000002 -26.151300 10.158397 0.000001 -0.000039 -6.258991 5.031745 3.443586 -0.000004 0.000000 -0.000000 -0.000000 0.000000 0.000000 3.936996 0.000000 -0.000009 0.000001 0.000000 0.000000 0.000001 0.000001 6.254631 19.069224 15.423030 -4.331671 -7.448569 0.000001 -0.000030 30.059977 -99.482286 31.244192 -10.735456 0.000000 -0.000039 -0.000100 0.000001 18.582296 -10.158399 0.000000 -0.000042 -28.159750 -29.079431 11.471415 0.000002 0.000001 0.000002 -0.000001 -0.000001 0.000000 -5.393684 0.000000 -0.000019 0.000001 -0.000000 0.000000 
9.663700 7.376302 33.488602 1.625556 -0.449533 -83.440617 3.102149 -0.000001 -0.000001 0.437767 -12.007320 8.852385 -0.000001 -0.000003 -16.833307 11.922300 -0.000000 -0.000000 -0.000000 0.000001 -15.538791 -22.157450 32.238517 19.767727 -0.000001 -5.872971 -1.573663 -2.206298 -0.000001 0.000000 -3.102150 -0.000001 -0.000001 7.633668 0.208570 -4.077628 0.000000 -0.000001 -16.833309 4.711198 -0.000000 -0.000000 0.000000 -0.000000 -15.538794 -22.147285 -4.021576 -5.378180 0.000000 -5.872970 -1.573664 4.453701 -0.000000 -0.000000 -0.000000 -0.000001 0.039368 -7.182328 -0.673476 0.482533 0.000000 0.000000 8.310464 1.616884 -1.194453 -0.897795 -0.000001 0.000000 6.254632 20.553793 -2.167020 11.180201 0.000000 0.000003 8.608167 -16.020081 5.831546 -8.277032 -0.000001 0.000000 6.254631 16.886908 -23.339059 -3.730526 7.448572 -0.000001 -0.000034 7.166851 100.676708 -11.558984 10.735449 -0.000001 -0.000041 -0.000101 -0.000001 -23.852998 10.158396 -0.000001 -0.000040 -7.681731 4.868369 3.317180 0.000002 0.000000 -0.000001 0.000000 -0.000000 0.000001 3.937000 -0.000000 -0.000010 0.000001 -0.000000 0.000000 -0.000000 0.000000 6.254631 19.413764 15.212469 -4.351455 -7.448571 -0.000001 -0.000032 23.651074 -99.549194 25.426583 -10.735460 0.000001 -0.000040 -0.000101 0.000000 17.748699 -10.158402 -0.000000 -0.000040 -27.893728 -27.644624 12.765524 0.000004 0.000001 -0.000000 -0.000001 0.000001 0.000002 -5.393684 -0.000000 -0.000020 0.000001 0.000001 0.000002 
9.658300 7.461302 33.476700 1.917872 -0.720746 -83.444927 3.102150 0.000000 -0.000006 -1.135426 -12.531616 8.514705 0.000000 -0.000002 -16.833307 14.449100 -0.000000 -0.000000 0.000004 -0.000000 -15.538791 -22.946517 31.989673 20.152420 0.000000 -5.872972 -1.573661 -2.345796 0.000001 0.000001 -3.102150 -0.000000 -0.000006 7.148784 -0.194918 -4.025424 -0.000001 -0.000001 -16.833311 5.069401 -0.000000 -0.000000 -0.000001 -0.000000 -15.538791 -22.267889 -3.617395 -5.319428 0.000001 -5.872971 -1.573663 4.352800 -0.000000 -0.000000 0.000000 0.000000 0.039363 -7.128504 -0.826375 0.450447 0.000000 0.000001 8.310458 1.355043 -1.326620 -0.943953 0.000000 0.000001 6.254625 20.493380 -2.023407 11.331560 0.000000 -0.000001 8.608163 -15.898551 6.073028 -8.194605 -0.000000 0.000001 6.254624 16.876153 -23.155771 -3.812433 7.448570 -0.000001 -0.000033 5.564006 100.951842 -10.107076 10.735448 0.000002 -0.000039 -0.000100 0.000000 -21.903199 10.158395 0.000001 -0.000038 -8.928562 5.402707 3.646119 -0.000002 -0.000001 -0.000000 0.000001 0.000000 0.000000 3.937001 -0.000002 -0.000009 0.000002 0.000000 0.000000 0.000001 0.000001 6.254625 19.474377 15.245862 -4.263927 -7.448571 -0.000001 -0.000032 18.157284 -99.818837 20.219223 -10.735453 -0.000001 -0.000040 -0.000100 0.000001 17.117397 -10.158399 0.000001 -0.000042 -26.621337 -24.700939 15.335064 -0.000000 -0.000001 -0.000000 -0.000001 -0.000001 0.000001 -5.393689 -0.000001 -0.000020 0.000001 -0.000001 0.000002 
9.617300 7.520402 33.465599 1.850649 -0.615003 -83.531349 3.102151 -0.000001 -0.000002 -2.132159 -12.640675 8.060731 -0.000000 -0.000003 -16.833313 16.821600 0.000001 -0.000000 0.000002 -0.000002 -15.538790 -23.738896 31.580227 20.884830 -0.000000 -5.872972 -1.573662 -2.194196 -0.000002 0.000002 -3.102149 0.000001 -0.000002 7.232465 -0.241462 -3.822934 -0.000000 -0.000002 -16.833311 5.256000 0.000000 0.000000 -0.000000 -0.000001 -15.538793 -22.532391 -3.585194 -5.444585 0.000002 -5.872971 -1.573663 4.552400 0.000000 -0.000000 0.000001 0.000000 0.039371 -7.001367 -0.817769 0.499851 0.000000 0.000000 8.310463 1.549660 -1.293342 -0.896629 0.000000 0.000002 6.254632 20.336562 -1.898660 11.466783 0.000000 0.000001 8.608161 -15.833676 6.228897 -8.147324 0.000000 0.000002 6.254632 16.655348 -23.022606 -4.061148 7.448566 0.000002 -0.000024 4.416420 101.196035 -8.912996 10.735449 -0.000001 -0.000039 -0.000100 -0.000002 -20.279699 10.158403 0.000001 -0.000040 -9.837231 5.800336 4.125359 0.000002 0.000001 -0.000000 0.000000 0.000001 -0.000000 3.937001 0.000000 -0.000010 0.000001 0.000001 0.000000 0.000001 0.000002 6.254632 19.216358 15.286127 -4.016626 -7.448571 0.000002 -0.000032 16.202134 -100.198001 18.279417 -10.735447 -0.000000 -0.000040 -0.000100 0.000001 16.567500 -10.158396 -0.000001 -0.000040 -24.949446 -22.265213 17.631155 -0.000003 0.000001 0.000000 -0.000001 0.000003 -0.000002 -5.393688 0.000001 -0.000021 0.000001 0.000003 -0.000001 
9.594900 7.590502 33.454601 1.973762 -0.729825 -83.198965 3.102150 -0.000001 -0.000006 -3.705360 -12.899184 7.129620 0.000001 -0.000001 -16.833307 19.516098 0.000000 -0.000001 0.000004 -0.000001 -15.538790 -24.516373 31.032401 21.676828 -0.000001 -5.872972 -1.573663 -2.109099 -0.000000 -0.000002 -3.102150 -0.000000 -0.000009 7.131891 -0.523444 -4.120473 -0.000000 0.000000 -16.833311 5.314601 0.000000 0.000000 -0.000001 -0.000002 -15.538793 -22.605218 -3.545620 -5.436536 -0.000001 -5.872969 -1.573661 4.315203 0.000000 -0.000000 -0.000000 -0.000001 0.039364 -6.860855 -0.824281 0.392441 -0.000000 0.000000 8.310461 1.355334 -1.314796 -1.009565 0.000000 0.000001 6.254632 20.313503 -2.019233 11.297610 0.000001 0.000004 8.608172 -15.780717 6.608185 -7.841419 0.000000 -0.000000 6.254632 16.618523 -23.069833 -4.281025 7.448572 0.000001 -0.000023 2.026799 101.502157 -6.685881 10.735451 -0.000001 -0.000040 -0.000100 -0.000000 -18.504500 10.158398 0.000001 -0.000038 -10.337503 5.668757 4.085212 -0.000000 0.000000 0.000000 -0.000001 -0.000000 -0.000001 3.937000 0.000000 -0.000009 -0.000000 -0.000000 -0.000001 0.000001 0.000000 6.254632 19.369237 15.189460 -4.015190 -7.448570 -0.000000 -0.000033 13.546936 -100.369022 15.867907 -10.735443 0.000001 -0.000039 -0.000100 0.000001 16.252198 -10.158404 0.000002 -0.000043 -24.471979 -20.021415 19.321591 -0.000001 0.000000 -0.000000 0.000000 0.000002 -0.000002 -5.393688 0.000001 -0.000019 -0.000001 0.000001 -0.000001 
